<svg width="128" height="128" viewBox="0 0 128 128" fill="none" xmlns="http://www.w3.org/2000/svg">
  <rect width="128" height="128" rx="24" fill="#FFFFFF"/>
  <g transform="translate(24,27) scale(2.667)">
    <path d="M5.48 25.6474C7.18667 26.5807 9.10666 27.0474 11.24 27.0474C13.4 27.0474 15.3467 26.5807 17.08 25.6474C18.84 24.6874 20.2267 23.3407 21.24 21.6074C22.28 19.874 22.8 17.874 22.8 15.6074C22.8 13.9957 22.5439 12.5189 22.0316 11.1769L11.4021 22.8034L2.55325 13.9547L6.08875 10.4191L11.2401 15.5704L19.1277 6.94297C18.5468 6.43174 17.9042 5.98654 17.2 5.60736C15.4667 4.64736 13.5333 4.16736 11.4 4.16736C9.26667 4.16736 7.33333 4.64736 5.6 5.60736C3.86666 6.54069 2.49333 7.87403 1.48 9.60736C0.493329 11.3407 0 13.3407 0 15.6074C0 17.874 0.480002 19.874 1.44 21.6074C2.42667 23.3407 3.77334 24.6874 5.48 25.6474Z" fill="#002351"/>
    <path fill-rule="evenodd" clip-rule="evenodd" d="M22.0316 11.1769L29.1655 3.37377L25.4753 0L19.1277 6.94297C19.9768 7.69009 20.6942 8.57822 21.28 9.60736C21.5728 10.1083 21.8234 10.6314 22.0316 11.1769Z" fill="#12D27D"/>
  </g>
</svg>
